<mxfile host="Electron" agent="Mozilla/5.0 (Windows NT 10.0; Win64; x64) AppleWebKit/537.36 (KHTML, like Gecko) draw.io/24.7.8 Chrome/128.0.6613.36 Electron/32.0.1 Safari/537.36" version="24.7.8">
  <diagram name="Страница-1" id="Page-1">
    <mxGraphModel dx="819" dy="505" grid="1" gridSize="10" guides="1" tooltips="1" connect="1" arrows="1" fold="1" page="1" pageScale="1" pageWidth="827" pageHeight="1169" math="0" shadow="0">
      <root>
        <mxCell id="0" />
        <mxCell id="1" parent="0" />
        <UserObject label="&lt;span style=&quot;font-family: &amp;quot;Times New Roman&amp;quot;; font-size: 14.11px;&quot;&gt;DelMatrixColumn (KFunctions, kollStolbFunctions)&lt;/span&gt;" tags="Блок-схема" id="2">
          <mxCell style="vsdxID=1;rotation=0;fillColor=#ffffff;gradientColor=none;shape=stencil(nZLdDoMgDIWfprcG6Y1eO/ceJuJoxsAg29zbD9LsjyWGeHcO/VpyCoDdoodZgRRL8O6s7jQGDXgAKclq5SlEBdgDdpPz6uTd1Y7s5yGRSV3cLU1YuU+kDike7GrB/sioIfuFvoq74A10J5hdH8Un40TG8Ire9bIFNJWQ5aFyemtyW1dtUz76D//Jl2WLIn/veMR/Bfsn);strokeColor=#000000;spacingTop=-1;spacingBottom=-1;spacingLeft=-1;spacingRight=-1;points=[[1,0.5,0],[0.5,0.5,0],[0.5,0,0]];labelBackgroundColor=none;rounded=0;html=1;whiteSpace=wrap;direction=north;" parent="1" vertex="1">
            <mxGeometry x="323.875" y="39.99499999999999" width="232.25" height="73" as="geometry" />
          </mxCell>
        </UserObject>
        <mxCell id="DCA21x13-JNAjoLtuj4D-82" style="edgeStyle=orthogonalEdgeStyle;rounded=0;orthogonalLoop=1;jettySize=auto;html=1;" parent="1" source="4" target="6" edge="1">
          <mxGeometry relative="1" as="geometry" />
        </mxCell>
        <UserObject label="&lt;div style=&quot;font-size: 1px&quot;&gt;&lt;font style=&quot;font-size:16.93px;font-family:Times New Roman;color:#000000;direction:ltr;letter-spacing:0px;line-height:120%;opacity:1&quot;&gt;DGTwoMas.Columns.RemoveAt(KFunctions)&lt;/font&gt;&lt;font style=&quot;font-size:16.93px;font-family:Times New Roman;color:#000000;direction:ltr;letter-spacing:0px;line-height:120%;opacity:1&quot;&gt;&lt;br&gt;&lt;/font&gt;&lt;/div&gt;" tags="Фон" id="4">
          <mxCell style="verticalAlign=middle;align=center;overflow=width;vsdxID=3;fillColor=#ffffff;gradientColor=none;shape=stencil(nZBLDoAgDERP0z3SIyjew0SURgSD+Lu9kMZoXLhwN9O+tukAlrNpJg1SzDH4QW/URgNYgZTkjA4UkwJUgGXng+6DX1zLfmoymdXo17xh5zmRJ6Q42BWCfc2oJfdAr+Yv+AP9Cb7OJ3H/2JG1HNGz/84klThPVCc=);strokeColor=#000000;points=[[1,0.5,0],[0.5,0,0],[0.5,0.5,0],[0.5,0.5,0]];labelBackgroundColor=none;rounded=0;html=1;whiteSpace=wrap;" parent="1" vertex="1">
            <mxGeometry x="270" y="140" width="340" height="60" as="geometry" />
          </mxCell>
        </UserObject>
        <mxCell id="DCA21x13-JNAjoLtuj4D-84" style="edgeStyle=orthogonalEdgeStyle;rounded=0;orthogonalLoop=1;jettySize=auto;html=1;" parent="1" source="6" target="DCA21x13-JNAjoLtuj4D-83" edge="1">
          <mxGeometry relative="1" as="geometry" />
        </mxCell>
        <UserObject label="&lt;div style=&quot;font-size: 1px&quot;&gt;&lt;font style=&quot;font-size:16.93px;font-family:Times New Roman;color:#000000;direction:ltr;letter-spacing:0px;line-height:120%;opacity:1&quot;&gt; kollStolbFunctions = kollStolbFunctions - 1&lt;/font&gt;&lt;font style=&quot;font-size:16.93px;font-family:Times New Roman;color:#000000;direction:ltr;letter-spacing:0px;line-height:120%;opacity:1&quot;&gt;&lt;br&gt;&lt;/font&gt;&lt;/div&gt;" tags="Фон" id="6">
          <mxCell style="verticalAlign=middle;align=center;overflow=width;vsdxID=6;fillColor=#ffffff;gradientColor=none;shape=stencil(nZBLDoAgDERP0z3SIyjew0SURgSD+Lu9kMZoXLhwN9O+tukAlrNpJg1SzDH4QW/URgNYgZTkjA4UkwJUgGXng+6DX1zLfmoymdXo17xh5zmRJ6Q42BWCfc2oJfdAr+Yv+AP9Cb7OJ3H/2JG1HNGz/84klThPVCc=);strokeColor=#000000;points=[[1,0.5,0],[0.5,0,0],[0.5,0.5,0],[0.5,0.5,0]];labelBackgroundColor=none;rounded=0;html=1;whiteSpace=wrap;" parent="1" vertex="1">
            <mxGeometry x="270" y="230" width="341" height="60" as="geometry" />
          </mxCell>
        </UserObject>
        <UserObject label="" tags="Фон" id="11">
          <mxCell style="vsdxID=11;fillColor=#ffffff;gradientColor=none;shape=stencil(vVHLDsIgEPwajiQU4hfU+h8bu7RELM2CFv9eyMZYjCcP3mZ2Zh/ZEaaPM6wotIqJwgU3N6ZZmKPQ2i0zkksFCTMI09tAOFG4LSPzFaqzomu41wmZ+1Tt0OrB7MD0xE6gc5EoN5qi1vsa1Kmvo1SWkF2UFBIkF5ZmqweaUJY10nqYGiluiOuu3P182P/OKuD9Zuu855T2+mcspcSRmuEJ);strokeColor=#000000;points=[[0.5,0,0],[0.5,0.5,0],[0.5,0.5,0],[0.5,0.5,0],[1,0.5,0]];labelBackgroundColor=none;rounded=0;html=1;whiteSpace=wrap;" parent="1" vertex="1">
            <mxGeometry x="339" y="596" width="149" height="60" as="geometry" />
          </mxCell>
        </UserObject>
        <mxCell id="12" value="&lt;div style=&quot;font-size: 1px&quot;&gt;&lt;font style=&quot;font-size:16.93px;font-family:Times New Roman;color:#000000;direction:ltr;letter-spacing:0px;line-height:120%;opacity:1&quot;&gt;Конец&lt;br&gt;&lt;/font&gt;&lt;font style=&quot;font-size:16.93px;font-family:Times New Roman;color:#000000;direction:ltr;letter-spacing:0px;line-height:120%;opacity:1&quot;&gt;&lt;span style=&quot;font-size: 14.11px;&quot;&gt;DelMatrixColumn&lt;/span&gt;&lt;br&gt;&lt;/font&gt;&lt;/div&gt;" style="text;vsdxID=11;fillColor=none;gradientColor=none;strokeColor=none;points=[[0.5,0,0],[0.5,0.5,0],[0.5,0.5,0],[0.5,0.5,0],[1,0.5,0]];labelBackgroundColor=none;rounded=0;html=1;whiteSpace=wrap;verticalAlign=middle;align=center;overflow=width;;html=1;" parent="11" vertex="1">
          <mxGeometry x="9.35" y="2.87" width="130.9" height="53.33" as="geometry" />
        </mxCell>
        <UserObject label="" tags="Соединительная_линия" id="52">
          <mxCell style="vsdxID=13;edgeStyle=none;startArrow=none;endArrow=block;startSize=5;endSize=5;strokeColor=#000000;spacingTop=0;spacingBottom=0;spacingLeft=0;spacingRight=0;verticalAlign=middle;html=1;labelBackgroundColor=#ffffff;rounded=0;entryX=0.5;entryY=0;entryDx=0;entryDy=0;entryPerimeter=0;" parent="1" source="2" target="4" edge="1">
            <mxGeometry relative="1" as="geometry">
              <mxPoint x="10" as="offset" />
              <Array as="points">
                <mxPoint x="440" y="120" />
              </Array>
            </mxGeometry>
          </mxCell>
        </UserObject>
        <mxCell id="DCA21x13-JNAjoLtuj4D-88" style="edgeStyle=orthogonalEdgeStyle;rounded=0;orthogonalLoop=1;jettySize=auto;html=1;" parent="1" source="DCA21x13-JNAjoLtuj4D-83" target="DCA21x13-JNAjoLtuj4D-87" edge="1">
          <mxGeometry relative="1" as="geometry" />
        </mxCell>
        <mxCell id="DCA21x13-JNAjoLtuj4D-93" value="да" style="edgeLabel;html=1;align=center;verticalAlign=middle;resizable=0;points=[];" parent="DCA21x13-JNAjoLtuj4D-88" vertex="1" connectable="0">
          <mxGeometry x="-0.411" relative="1" as="geometry">
            <mxPoint as="offset" />
          </mxGeometry>
        </mxCell>
        <mxCell id="DCA21x13-JNAjoLtuj4D-83" value="kollStolbFunctions = 0" style="rhombus;whiteSpace=wrap;html=1;" parent="1" vertex="1">
          <mxGeometry x="354.75" y="310" width="169.5" height="80" as="geometry" />
        </mxCell>
        <mxCell id="DCA21x13-JNAjoLtuj4D-87" value="tbStrok = 0" style="shape=parallelogram;perimeter=parallelogramPerimeter;whiteSpace=wrap;html=1;fixedSize=1;" parent="1" vertex="1">
          <mxGeometry x="380" y="421" width="120" height="60" as="geometry" />
        </mxCell>
        <mxCell id="DCA21x13-JNAjoLtuj4D-89" value="tbStrok =&amp;nbsp;kollStolbFunctions" style="shape=parallelogram;perimeter=parallelogramPerimeter;whiteSpace=wrap;html=1;fixedSize=1;" parent="1" vertex="1">
          <mxGeometry x="301" y="511" width="225" height="60" as="geometry" />
        </mxCell>
        <mxCell id="DCA21x13-JNAjoLtuj4D-90" style="edgeStyle=orthogonalEdgeStyle;rounded=0;orthogonalLoop=1;jettySize=auto;html=1;entryX=0.616;entryY=0.044;entryDx=0;entryDy=0;entryPerimeter=0;" parent="1" source="DCA21x13-JNAjoLtuj4D-87" target="DCA21x13-JNAjoLtuj4D-89" edge="1">
          <mxGeometry relative="1" as="geometry" />
        </mxCell>
        <mxCell id="DCA21x13-JNAjoLtuj4D-91" style="edgeStyle=orthogonalEdgeStyle;rounded=0;orthogonalLoop=1;jettySize=auto;html=1;entryX=0.5;entryY=0;entryDx=0;entryDy=0;entryPerimeter=0;" parent="1" source="DCA21x13-JNAjoLtuj4D-89" target="11" edge="1">
          <mxGeometry relative="1" as="geometry" />
        </mxCell>
        <mxCell id="DCA21x13-JNAjoLtuj4D-92" style="edgeStyle=orthogonalEdgeStyle;rounded=0;orthogonalLoop=1;jettySize=auto;html=1;entryX=0.618;entryY=0.035;entryDx=0;entryDy=0;entryPerimeter=0;" parent="1" source="DCA21x13-JNAjoLtuj4D-83" target="DCA21x13-JNAjoLtuj4D-89" edge="1">
          <mxGeometry relative="1" as="geometry">
            <Array as="points">
              <mxPoint x="620" y="350" />
              <mxPoint x="620" y="495" />
              <mxPoint x="440" y="495" />
            </Array>
          </mxGeometry>
        </mxCell>
        <mxCell id="DCA21x13-JNAjoLtuj4D-94" value="нет" style="edgeLabel;html=1;align=center;verticalAlign=middle;resizable=0;points=[];" parent="DCA21x13-JNAjoLtuj4D-92" vertex="1" connectable="0">
          <mxGeometry x="-0.7914" y="1" relative="1" as="geometry">
            <mxPoint as="offset" />
          </mxGeometry>
        </mxCell>
      </root>
    </mxGraphModel>
  </diagram>
</mxfile>
